<?xml version="1.0" standalone="no"?>
<!DOCTYPE svg PUBLIC "-//W3C//DTD SVG 20010904//EN"
 "http://www.w3.org/TR/2001/REC-SVG-20010904/DTD/svg10.dtd">
<svg version="1.0" xmlns="http://www.w3.org/2000/svg"
 width="700.000000pt" height="700.000000pt" viewBox="0 0 700.000000 700.000000"
 preserveAspectRatio="xMidYMid meet">
<metadata>
Created by potrace 1.14, written by Peter Selinger 2001-2017
</metadata>
<g transform="translate(0.000000,700.000000) scale(0.100000,-0.100000)"
fill="#000000" stroke="none">
<path d="M3359 6679 c-228 -11 -439 -52 -664 -129 -735 -250 -1313 -824 -1569
-1559 -44 -127 -90 -313 -113 -461 -25 -163 -25 -569 0 -725 61 -370 177 -637
422 -964 55 -75 208 -284 340 -466 612 -846 971 -1305 1432 -1826 186 -210
215 -233 297 -232 63 1 113 32 186 114 522 586 888 1049 1535 1944 132 182
285 391 340 466 246 329 365 602 422 969 25 162 25 558 0 720 -113 724 -499
1332 -1102 1735 -363 243 -805 392 -1210 410 -66 3 -133 7 -150 8 -16 2 -91 0
-166 -4z m425 -1059 c207 -40 427 -135 598 -257 110 -78 269 -238 347 -348 71
-101 168 -292 205 -405 53 -160 69 -271 70 -465 0 -193 -12 -284 -60 -443
-162 -538 -606 -936 -1169 -1048 -127 -26 -425 -26 -550 -1 -564 114 -1007
512 -1169 1049 -49 161 -61 250 -60 443 1 145 5 200 23 282 46 216 133 418
254 590 77 109 237 269 344 346 209 149 467 247 728 278 106 12 320 2 439 -21z"/>
<path d="M4240 5205 c-165 -53 -221 -258 -104 -379 54 -56 105 -76 194 -76
155 0 260 93 260 230 0 89 -50 168 -133 212 -51 26 -158 32 -217 13z"/>
<path d="M2765 4601 c-254 -73 -431 -312 -453 -613 -14 -194 12 -347 83 -488
138 -274 447 -404 728 -305 74 26 184 99 213 142 l19 28 5 -90 5 -90 220 0
220 0 3 708 2 707 -225 0 -225 0 0 -87 0 -87 -51 52 c-57 56 -136 102 -218
126 -74 22 -246 20 -326 -3z m417 -389 c58 -25 117 -84 148 -147 22 -45 25
-63 25 -170 0 -136 -14 -180 -78 -252 -104 -115 -294 -125 -411 -22 -136 119
-151 375 -30 518 30 36 101 80 147 92 50 13 149 4 199 -19z"/>
<path d="M4112 3893 l3 -708 218 -3 217 -2 0 710 0 710 -220 0 -220 0 2 -707z"/>
</g>
</svg>
