<?xml version="1.0" standalone="no"?>
<!DOCTYPE svg PUBLIC "-//W3C//DTD SVG 20010904//EN"
 "http://www.w3.org/TR/2001/REC-SVG-20010904/DTD/svg10.dtd">
<svg version="1.0" xmlns="http://www.w3.org/2000/svg"
 width="414.000000pt" height="414.000000pt" viewBox="0 0 414.000000 414.000000"
 preserveAspectRatio="xMidYMid meet">
<metadata>
Created by Takafzar co.
</metadata>
<g transform="translate(0.000000,414.000000) scale(0.100000,-0.100000)"
fill="#000000" stroke="none">
<path d="M1807 4127 c-53 -17 -106 -63 -128 -111 -15 -33 -19 -66 -19 -174 0
-97 -3 -134 -12 -137 -7 -2 -53 -16 -102 -31 -49 -15 -146 -56 -217 -91 l-128
-63 -88 89 c-104 105 -138 125 -213 125 -80 1 -120 -27 -301 -211 -160 -161
-182 -191 -194 -256 -14 -75 10 -122 116 -232 l97 -100 -58 -117 c-32 -65 -74
-166 -93 -225 l-35 -108 -150 -5 c-149 -5 -150 -5 -189 -36 -21 -16 -48 -50
-61 -75 -22 -43 -23 -50 -20 -310 l3 -266 29 -41 c18 -26 47 -51 79 -67 47
-23 62 -25 181 -25 l131 0 35 -113 c19 -61 61 -164 92 -227 l58 -114 -99 -101
c-119 -121 -137 -162 -110 -260 9 -32 46 -76 192 -224 100 -101 196 -189 214
-197 38 -17 120 -18 159 -4 15 6 72 54 126 107 l98 96 128 -61 c70 -34 174
-76 230 -94 l102 -33 0 -130 c0 -149 12 -189 73 -242 58 -51 86 -55 364 -51
l251 3 43 30 c23 17 53 50 66 74 21 40 23 57 23 177 0 94 4 135 12 140 7 4 57
23 113 41 55 18 151 59 213 89 l113 56 92 -89 c51 -50 106 -98 124 -107 44
-22 134 -21 181 3 53 27 367 348 387 393 20 48 19 120 -1 161 -9 18 -59 75
-111 128 l-95 96 28 44 c40 63 108 222 138 321 l27 86 143 4 c138 3 144 4 191
33 32 20 56 45 72 74 22 43 23 51 23 303 0 285 -3 299 -67 360 -44 41 -74 48
-222 48 l-139 0 -36 114 c-21 62 -63 166 -95 229 l-58 116 90 88 c98 97 127
145 127 213 0 78 -27 115 -216 301 -165 163 -183 177 -230 188 -40 10 -61 9
-100 0 -42 -11 -64 -28 -151 -112 l-101 -99 -114 57 c-62 31 -162 73 -223 94
l-110 37 -5 145 c-3 79 -10 155 -17 169 -19 42 -78 90 -128 106 -61 18 -469
19 -528 1z m378 -1187 c39 -6 80 -13 93 -16 l22 -4 0 -694 c0 -647 1 -694 18
-709 13 -12 214 -57 254 -57 4 0 8 -38 8 -85 l0 -85 -515 0 -515 0 0 85 c0 47
3 85 8 85 4 0 66 9 137 20 72 11 135 20 142 20 6 0 19 7 27 16 14 14 16 75 16
523 l0 508 -47 -9 c-27 -5 -95 -10 -153 -11 l-104 -2 -13 70 c-6 39 -12 77
-12 85 -1 10 28 24 90 44 111 35 326 141 394 195 28 21 57 38 65 36 8 -2 47
-9 85 -15z"/>
</g>
</svg>
