<svg xmlns="http://www.w3.org/2000/svg" xmlns:xlink="http://www.w3.org/1999/xlink" version="1.1" width="1000" height="1000" viewBox="0 0 1000 1000" xml:space="preserve">
<desc>Created with Fabric.js 3.5.0</desc>
<defs>
</defs>
<rect x="0" y="0" width="100%" height="100%" fill="#ffffff"  rx="200" ry="200"/>
<g transform="matrix(7.3689 0 0 7.3689 500 499.9999)" id="691555">
<path style="stroke: none; stroke-width: 1; stroke-dasharray: none; stroke-linecap: butt; stroke-dashoffset: 0; stroke-linejoin: miter; stroke-miterlimit: 4; is-custom-font: none; font-file-url: none; fill: rgb(0,68,255); fill-rule: nonzero; opacity: 1;" vector-effect="non-scaling-stroke" transform=" translate(-64, -64)" d="M 112.41113 46.2215 A 48.72739 48.72739 0 0 0 65.72991 2.34771 H 65.727 c -0.57663 -0.02039 -1.15036 -0.032 -1.727 -0.032 s -1.15036 0.01164 -1.727 0.032 h -0.00292 A 48.72739 48.72739 0 0 0 15.58887 46.2215 a 49.27442 49.27442 0 0 0 0.65527 14.01689 l 0.05533 0.332 c 0.0262 0.12523 0.09028 0.466 0.22425 0.996 l 0.04659 0.19512 c 0.09028 0.40481 0.21259 0.86494 0.35239 1.35712 a 39.52682 39.52682 0 0 0 6.608 13.0005 c 8.54064 11.16789 19.523 28.318 37.81155 48.39211 a 3.59728 3.59728 0 0 0 5.31548 0 C 84.94629 104.43711 95.92865 87.287 104.46929 76.11915 a 39.52682 39.52682 0 0 0 6.608 -13.0005 c 0.1398 -0.49218 0.26211 -0.95231 0.35239 -1.35712 l 0.04659 -0.19512 c 0.134 -0.53 0.19805 -0.87079 0.22425 -0.996 l 0.05533 -0.332 A 49.27441 49.27441 0 0 0 112.41113 46.2215 Z M 64.00036 80.96257 A 29.33469 29.33469 0 1 1 93.33506 51.62788 A 29.33108 29.33108 0 0 1 64.00036 80.96257 Z" stroke-linecap="round"/>
</g>
<g transform="matrix(1 0 0 1 496 431.0519)" style="" id="653859">
		
<path xml:space="preserve" font-family="Poppins" font-size="362" font-style="normal" font-weight="bold" style="stroke: none; stroke-width: 1; stroke-dasharray: none; stroke-linecap: butt; stroke-dashoffset: 0; stroke-linejoin: miter; stroke-miterlimit: 4; is-custom-font: none; font-file-url: none; fill: rgb(0,0,0); fill-rule: nonzero; opacity: 1; white-space: pre;" d="M-166.16 12.36Q-166.16-18.77-154.39-42.30Q-142.63-65.83-122.36-78.50Q-102.08-91.17-77.11-91.17L-77.11-91.17Q-55.75-91.17-39.64-82.49Q-23.53-73.80-14.84-59.68L-14.84-59.68L-14.84-88.28L47.06-88.28L47.06 113.72L-14.84 113.72L-14.84 85.12Q-23.89 99.24-40.00 107.93Q-56.11 116.61-77.47 116.61L-77.47 116.61Q-102.08 116.61-122.36 103.76Q-142.63 90.91-154.39 67.20Q-166.16 43.49-166.16 12.36L-166.16 12.36ZM-14.84 12.72Q-14.84-10.45-27.69-23.84Q-40.54-37.24-59.01-37.24L-59.01-37.24Q-77.47-37.24-90.32-24.02Q-103.17-10.81-103.17 12.36L-103.17 12.36Q-103.17 35.53-90.32 49.10Q-77.47 62.68-59.01 62.68L-59.01 62.68Q-40.54 62.68-27.69 49.28Q-14.84 35.89-14.84 12.72L-14.84 12.72Z"/><path xml:space="preserve" font-family="Poppins" font-size="362" font-style="normal" font-weight="bold" style="stroke: none; stroke-width: 1; stroke-dasharray: none; stroke-linecap: butt; stroke-dashoffset: 0; stroke-linejoin: miter; stroke-miterlimit: 4; is-custom-font: none; font-file-url: none; fill: rgb(247,147,30); fill-rule: nonzero; opacity: 1; white-space: pre;" d="M123.08-109.27Q106.79-109.27 96.47-118.87Q86.16-128.46 86.16-142.58L86.16-142.58Q86.16-157.06 96.47-166.65Q106.79-176.24 123.08-176.24L123.08-176.24Q139.01-176.24 149.32-166.65Q159.64-157.06 159.64-142.58L159.64-142.58Q159.64-128.46 149.32-118.87Q139.01-109.27 123.08-109.27L123.08-109.27ZM91.95-88.28L153.85-88.28L153.85 113.72L91.95 113.72L91.95-88.28Z"/></g>
</svg>