<svg xmlns="http://www.w3.org/2000/svg" xmlns:xlink="http://www.w3.org/1999/xlink" version="1.1" width="1000" height="1000" viewBox="0 0 1000 1000" xml:space="preserve">
<desc>Created by Takafzar co.</desc>
<defs>
</defs>
<rect x="0" y="0" width="100%" height="100%" fill="#ffffff"/>
<g transform="matrix(30.9445 0 0 30.9445 499.5001 499.5001)" id="8311">
<path style="stroke: none; stroke-width: 0; stroke-dasharray: none; stroke-linecap: butt; stroke-dashoffset: 0; stroke-linejoin: miter; stroke-miterlimit: 4; is-custom-font: none; font-file-url: none; fill: rgb(10,65,102); fill-rule: nonzero; opacity: 1;" vector-effect="non-scaling-stroke" transform=" translate(-15.746, -15.746)" d="M 29.93 18.891 c 0.859 0 1.56 -0.696 1.56 -1.561 v -3.176 c 0 -0.861 -0.697 -1.56 -1.56 -1.56 h -1.756 c 0 -0.001 0 -0.002 -0.004 -0.006 c -0.307 -1.215 -0.789 -2.361 -1.418 -3.41 l 1.223 -1.225 c 0.607 -0.609 0.607 -1.596 0 -2.205 l -2.246 -2.246 c -0.293 -0.293 -0.69 -0.457 -1.104 -0.457 c -0.412 0 -0.812 0.165 -1.103 0.458 l -1.223 1.223 c -1.039 -0.623 -2.176 -1.104 -3.381 -1.412 c -0.004 -0.001 -0.012 -0.903 -0.02 -1.765 C 18.895 0.692 18.2 0 17.34 0 h -3.175 c -0.416 0 -0.814 0.166 -1.107 0.461 c -0.293 0.295 -0.456 0.696 -0.452 1.111 l 0.015 1.706 c -1.244 0.264 -2.417 0.8 -3.491 1.442 L 7.915 3.502 C 7.623 3.209 7.226 3.045 6.812 3.045 c -0.414 0 -0.811 0.165 -1.103 0.457 L 3.46 5.75 c -0.608 0.609 -0.609 1.596 0 2.205 l 1.223 1.223 c -0.626 1.05 -1.108 2.195 -1.416 3.41 c -0.001 0.004 -0.001 0.005 -0.003 0.006 H 1.562 c -0.861 0 -1.56 0.698 -1.56 1.56 v 3.179 c 0 0.861 0.698 1.562 1.56 1.562 h 1.694 c -0.015 -0.062 -0.027 -0.119 -0.042 -0.184 c 0.015 0.059 0.027 0.118 0.042 0.176 c 0.308 1.231 0.793 2.394 1.429 3.455 l -1.222 1.221 c -0.293 0.291 -0.457 0.688 -0.457 1.104 s 0.164 0.811 0.457 1.104 l 2.247 2.248 c 0.292 0.291 0.688 0.457 1.102 0.457 c 0.413 0 0.811 -0.166 1.103 -0.457 l 1.221 -1.223 c 1.071 0.641 2.245 1.131 3.488 1.438 L 12.61 29.92 c -0.004 0.416 0.159 0.816 0.452 1.111 s 0.691 0.461 1.107 0.461 h 3.176 c 0.855 0 1.553 -0.691 1.56 -1.55 c 0.006 -0.851 0.012 -1.732 0.019 -1.733 c 1.204 -0.31 2.34 -0.789 3.379 -1.41 l 1.223 1.221 c 0.609 0.608 1.598 0.608 2.205 0 l 2.246 -2.243 c 0.606 -0.609 0.608 -1.597 0 -2.207 l -1.224 -1.224 c 0.638 -1.062 1.121 -2.224 1.433 -3.455 c 0.016 -0.059 0.016 -0.055 0 0.008 h 1.748 L 29.93 18.891 L 29.93 18.891 z M 15.72 20.143 c -2.421 0 -4.384 -1.965 -4.384 -4.385 c 0 -2.419 1.963 -4.385 4.384 -4.385 c 2.421 0 4.384 1.964 4.384 4.385 C 20.104 18.18 18.141 20.143 15.72 20.143 z" stroke-linecap="round"/>
</g>
<g transform="matrix(0.7776 0 0 0.7776 499.9915 499.9915)" id="320381">
<circle style="stroke: none; stroke-width: 1; stroke-dasharray: none; stroke-linecap: butt; stroke-dashoffset: 0; stroke-linejoin: miter; stroke-miterlimit: 4; is-custom-font: none; font-file-url: none; fill: rgb(10,65,102); fill-rule: nonzero; opacity: 1;" vector-effect="non-scaling-stroke" cx="0" cy="0" r="227.5"/>
</g>
<g transform="matrix(1 0 0 1 500 424.5109)" style="" id="716578">
		
<path xml:space="preserve" font-family="Yrsa" font-size="777" font-style="normal" font-weight="bold" style="stroke: none; stroke-width: 1; stroke-dasharray: none; stroke-linecap: butt; stroke-dashoffset: 0; stroke-linejoin: miter; stroke-miterlimit: 4; is-custom-font: none; font-file-url: none; fill: rgb(255,255,255); fill-rule: nonzero; opacity: 1; white-space: pre;" d="M3.60-155.15L54.74-146.67L54.74 179.38Q54.74 185.88 58.13 189.84Q61.52 193.79 67.74 194.92L67.74 194.92L122.27 204.25L122.27 244.09L-125.24 244.09L-125.24 204.25L-57.99 194.64Q-51.49 193.79-47.96 189.70Q-44.43 185.60-44.43 179.10L-44.43 179.10L-44.43-57.67Q-50.93-56.54-60.25-55.27Q-69.58-54.00-79.75-52.87Q-89.92-51.74-99.95-51.03Q-109.98-50.33-117.89-50.33L-117.89-50.33L-125.24-92.71Q-108.57-96.66-90.06-103.73Q-71.55-110.79-54.18-119.27Q-36.80-127.74-21.69-137.07Q-6.57-146.39 3.60-155.15L3.60-155.15Z"/></g>
</svg>